<svg width="170" height="27" viewBox="0 0 170 27" fill="none" xmlns="http://www.w3.org/2000/svg">
<path d="M168.468 3.25059C168.128 2.93666 167.677 2.76543 167.211 2.77292C166.738 2.76239 166.279 2.93364 165.932 3.25059C165.754 3.41662 165.615 3.61841 165.524 3.84224C165.433 4.06606 165.392 4.30666 165.403 4.54765C165.392 4.78704 165.433 5.02611 165.524 5.2482C165.615 5.4703 165.754 5.67009 165.932 5.83369C166.279 6.15064 166.738 6.32189 167.211 6.31136C167.677 6.31884 168.128 6.14762 168.468 5.83369C168.646 5.67043 168.786 5.47078 168.878 5.24867C168.97 5.02656 169.012 4.78732 169 4.54765C169.011 4.30638 168.969 4.06562 168.878 3.84177C168.786 3.61793 168.646 3.41629 168.468 3.25059V3.25059Z" fill="#072E45"/>
<path d="M168.658 8.29102H165.738V20.7633H168.658V8.29102Z" fill="#072E45"/>
<path d="M153.177 20.7665H156.1V10.7005C156.294 10.6711 156.591 10.6307 156.993 10.583C157.378 10.5356 157.766 10.5111 158.154 10.5095C158.584 10.4995 159.013 10.568 159.418 10.7115C159.753 10.8387 160.04 11.0644 160.24 11.3581C160.466 11.7051 160.618 12.0938 160.687 12.5006C160.784 13.0637 160.828 13.6342 160.821 14.2053V20.7665H163.741V13.7534C163.746 12.9712 163.662 12.191 163.488 11.4279C163.34 10.7668 163.043 10.1474 162.617 9.61676C162.179 9.09243 161.61 8.68983 160.966 8.44851C160.133 8.14446 159.249 8.00224 158.362 8.0297C157.366 8.02443 156.371 8.09691 155.386 8.24645C154.646 8.35648 153.912 8.50733 153.188 8.69832L153.177 20.7665Z" fill="#072E45"/>
<path d="M149.751 9.63202C148.779 8.56664 147.425 8.03272 145.689 8.03027C144.943 8.03137 144.205 8.17354 143.513 8.44908C142.804 8.7255 142.164 9.14894 141.635 9.6908C141.056 10.284 140.607 10.9879 140.314 11.7591C139.966 12.6796 139.798 13.657 139.819 14.6393C139.807 15.5104 139.932 16.3781 140.191 17.2109C140.429 17.9725 140.833 18.6734 141.374 19.2646C141.937 19.8655 142.632 20.3306 143.405 20.6238C144.329 20.9688 145.311 21.1347 146.299 21.1124C146.728 21.1115 147.156 21.0882 147.582 21.0426C147.999 20.9949 148.386 20.9361 148.75 20.859C149.076 20.8005 149.398 20.722 149.714 20.6238C149.943 20.5602 150.166 20.4753 150.379 20.3703L150.007 18.0118C149.56 18.1896 149.097 18.3262 148.624 18.4196C147.984 18.5511 147.332 18.614 146.678 18.607C145.473 18.607 144.547 18.3351 143.915 17.784C143.587 17.4895 143.322 17.1329 143.136 16.7353C142.95 16.3377 142.847 15.9073 142.832 15.4696H151.164C151.183 15.3153 151.198 15.1316 151.205 14.9332C151.213 14.7348 151.205 14.5658 151.205 14.4005C151.22 12.2881 150.733 10.6937 149.751 9.63202ZM142.862 13.3645C142.913 12.9978 143.001 12.6371 143.126 12.2881C143.249 11.9499 143.434 11.6372 143.673 11.366C143.92 11.0687 144.231 10.8299 144.584 10.6671C144.937 10.5044 145.322 10.4218 145.711 10.4255C146.095 10.418 146.476 10.4945 146.827 10.6496C147.136 10.795 147.407 11.0087 147.619 11.2742C147.849 11.5459 148.018 11.8627 148.114 12.2036C148.23 12.5698 148.288 12.9515 148.285 13.3351L142.862 13.3645Z" fill="#072E45"/>
<path d="M131.737 18.5071C131.21 18.3691 130.692 18.1998 130.186 18.0001L129.68 20.4064C130.146 20.5808 130.622 20.7292 131.105 20.8509C131.983 21.0535 132.884 21.1449 133.786 21.1228C135.443 21.1228 136.719 20.8166 137.614 20.2043C138.053 19.9042 138.407 19.4976 138.642 19.0234C138.876 18.5493 138.983 18.0236 138.953 17.4968C138.963 17.0115 138.889 16.5281 138.733 16.0677C138.588 15.6672 138.353 15.3042 138.045 15.006C137.693 14.6689 137.29 14.3876 136.851 14.1721C136.279 13.8882 135.69 13.6368 135.088 13.419C134.725 13.2975 134.368 13.1565 134.021 12.9965C133.773 12.8852 133.537 12.7485 133.318 12.5887C133.158 12.4756 133.029 12.3238 132.946 12.1479C132.869 11.9756 132.83 11.7888 132.834 11.6005C132.827 11.4104 132.876 11.2225 132.975 11.0594C133.074 10.8963 133.219 10.7652 133.392 10.682C133.842 10.466 134.339 10.3638 134.839 10.3845C135.424 10.3758 136.009 10.4363 136.58 10.5645C137.002 10.658 137.414 10.7896 137.811 10.9576L138.343 8.62107C137.847 8.44946 137.338 8.31559 136.822 8.22063C136.121 8.08491 135.408 8.01724 134.694 8.01857C133.228 8.01857 132.07 8.34921 131.22 9.01048C130.802 9.32706 130.467 9.73831 130.244 10.2095C130.02 10.6808 129.915 11.1982 129.937 11.718C129.921 12.2279 130.016 12.7352 130.216 13.2059C130.393 13.6017 130.652 13.9561 130.978 14.2456C131.323 14.5424 131.709 14.7898 132.124 14.9803C132.6 15.2086 133.088 15.4122 133.586 15.5901C134.24 15.806 134.865 16.1022 135.445 16.4718C135.619 16.5824 135.761 16.7341 135.86 16.9132C135.959 17.0922 136.011 17.2929 136.011 17.4968C136.026 17.6875 135.985 17.8786 135.891 18.046C135.797 18.2133 135.655 18.3495 135.483 18.4373C134.947 18.6538 134.368 18.748 133.79 18.7128C133.1 18.7314 132.41 18.6622 131.737 18.5071V18.5071Z" fill="#072E45"/>
<path d="M126.764 9.59493C125.789 8.52588 124.439 7.99319 122.702 7.99319C121.952 7.99111 121.21 8.13337 120.515 8.41199C119.814 8.69121 119.18 9.11303 118.655 9.65004C118.084 10.2458 117.637 10.9476 117.342 11.7147C116.996 12.6368 116.829 13.6153 116.851 14.5986C116.841 15.4695 116.966 16.3369 117.223 17.1702C117.459 17.9363 117.86 18.6431 118.398 19.2422C118.959 19.8448 119.654 20.3091 120.429 20.5978C121.355 20.9419 122.339 21.1054 123.327 21.079C123.756 21.0791 124.184 21.057 124.61 21.0129C125.027 20.9651 125.414 20.9064 125.774 20.8292C126.102 20.77 126.425 20.6903 126.742 20.5904C126.97 20.5301 127.192 20.4464 127.404 20.3406L127.032 17.9821C126.583 18.1584 126.118 18.2937 125.644 18.3862C125.006 18.5209 124.355 18.5849 123.703 18.5772C122.49 18.5772 121.571 18.3017 120.939 17.7543C120.611 17.4581 120.346 17.0995 120.161 16.6999C119.977 16.3003 119.875 15.868 119.864 15.4288H128.177C128.177 15.2745 128.207 15.0908 128.215 14.8925C128.222 14.6941 128.215 14.5251 128.215 14.3598C128.222 12.2621 127.738 10.6566 126.764 9.59493ZM119.875 13.3091C119.923 12.9434 120.01 12.5838 120.136 12.2364C120.26 11.8972 120.447 11.5834 120.686 11.3106C120.92 11.0338 121.212 10.8106 121.542 10.6566C121.909 10.4794 122.315 10.3924 122.724 10.4032C123.108 10.3963 123.489 10.4714 123.84 10.6236C124.15 10.7714 124.422 10.9861 124.636 11.2518C124.863 11.5253 125.032 11.8415 125.131 12.1812C125.246 12.5463 125.302 12.9268 125.298 13.3091H119.875Z" fill="#072E45"/>
<path d="M116.383 8.45959C116.237 8.41184 116.044 8.3604 115.802 8.30162C115.561 8.24284 115.311 8.19876 115.058 8.15835C114.805 8.11794 114.541 8.08855 114.285 8.06283C114.028 8.03712 113.801 8.02977 113.608 8.02977C112.663 8.02188 111.721 8.11301 110.796 8.30162C110.079 8.44976 109.373 8.6449 108.683 8.88575V20.7629H111.588V10.7704C111.832 10.6998 112.081 10.6446 112.332 10.6051C112.671 10.5439 113.014 10.512 113.359 10.5095C113.858 10.504 114.356 10.5471 114.846 10.6381C115.186 10.7036 115.521 10.7883 115.851 10.8916L116.383 8.45959Z" fill="#072E45"/>
<path d="M106.414 10.9032C106.266 10.3056 105.965 9.75547 105.54 9.30528C105.116 8.85509 104.582 8.51986 103.989 8.33159C103.202 8.07276 102.377 7.94852 101.549 7.96421C100.787 7.95894 100.026 8.02165 99.2758 8.15157C98.7296 8.2361 98.1901 8.35887 97.6615 8.51895L98.0335 10.8554C98.484 10.7055 98.9471 10.5948 99.4172 10.5248C100.032 10.423 100.654 10.3751 101.277 10.3815C101.7 10.3678 102.121 10.4326 102.519 10.5726C102.826 10.6844 103.102 10.867 103.323 11.1053C103.523 11.3362 103.666 11.6106 103.739 11.9061C103.826 12.2173 103.868 12.5387 103.866 12.8613V13.3646C103.492 13.2698 103.111 13.201 102.728 13.1589C102.392 13.1191 102.054 13.0982 101.716 13.0964C101.047 13.0943 100.38 13.1633 99.7259 13.3021C99.1275 13.4192 98.5562 13.6447 98.0409 13.9671C97.5551 14.2767 97.155 14.7009 96.8767 15.2015C96.5755 15.7589 96.428 16.3848 96.4489 17.0163C96.4259 17.6643 96.5531 18.3089 96.8209 18.9009C97.0565 19.3908 97.4119 19.815 97.855 20.1353C98.3367 20.473 98.8837 20.7094 99.4618 20.8296C100.144 20.9798 100.842 21.0513 101.541 21.0427C102.569 21.0519 103.596 20.9831 104.613 20.837C105.525 20.7084 106.205 20.5945 106.663 20.4953V12.9164C106.672 12.2373 106.588 11.5601 106.414 10.9032V10.9032ZM103.844 18.5923C103.164 18.7058 102.475 18.7538 101.787 18.7356C101.174 18.768 100.565 18.6306 100.027 18.3388C99.5957 18.0817 99.3688 17.6041 99.3688 16.9208C99.3599 16.6134 99.4469 16.3107 99.6181 16.0538C99.7784 15.8212 99.9994 15.6359 100.258 15.5174C100.538 15.3854 100.838 15.2986 101.147 15.2602C101.471 15.2073 101.8 15.1815 102.129 15.1831C102.468 15.1788 102.806 15.2046 103.141 15.2602C103.378 15.2899 103.613 15.3353 103.844 15.3962V18.5923Z" fill="#072E45"/>
<path d="M88.5787 17.0088C89.0176 18.3338 89.4466 19.5853 89.8657 20.7633H92.2462C92.5859 20.0286 92.9318 19.1934 93.284 18.2579C93.6559 17.3211 93.9944 16.3218 94.3515 15.2564C94.7086 14.191 95.0582 13.0705 95.4153 11.8913C95.7724 10.712 96.1146 9.51437 96.4531 8.29102H93.4365C93.2927 8.95964 93.1228 9.67969 92.9269 10.4512C92.7335 11.219 92.5252 12.0088 92.3057 12.8097C92.0863 13.6106 91.8668 14.3968 91.6399 15.1609C91.413 15.925 91.1936 16.6304 90.9853 17.2586C90.7373 16.5239 90.5005 15.7683 90.2748 14.9919C90.0492 14.2155 89.8322 13.4367 89.6239 12.6554C89.423 11.8766 89.2346 11.1173 89.0585 10.3777C88.8824 9.63805 88.7213 8.94249 88.575 8.29102H86.3432C86.1969 8.94494 86.0307 9.6405 85.8448 10.3777C85.6588 11.1149 85.4617 11.8741 85.2534 12.6554C85.0413 13.4342 84.8219 14.2131 84.5875 14.9919C84.3532 15.7707 84.1152 16.5275 83.8734 17.2586C83.6465 16.623 83.4196 15.9214 83.1927 15.1609C82.9658 14.4004 82.7501 13.6143 82.538 12.8097C82.326 12.0052 82.1252 11.219 81.9318 10.4512C81.7383 9.68336 81.5598 8.95964 81.4222 8.29102H78.3312C78.6709 9.51559 79.0168 10.7157 79.3689 11.8913C79.7211 13.0669 80.0757 14.1886 80.4328 15.2564C80.8047 16.3218 81.1432 17.3211 81.5003 18.2579C81.8574 19.1947 82.1921 20.0323 82.5157 20.7633H84.9149C85.3315 19.5877 85.753 18.3362 86.1795 17.0088C86.6061 15.6813 87.004 14.3172 87.3735 12.9162C87.7356 14.3172 88.1373 15.6813 88.5787 17.0088Z" fill="#072E45"/>
<path d="M69.6087 15.8035C69.5994 16.5438 69.6717 17.2829 69.8244 18.0078C69.9457 18.6041 70.1999 19.1663 70.5684 19.6536C70.9406 20.1303 71.4386 20.4964 72.0079 20.7116C72.7304 20.9731 73.4964 21.0977 74.2657 21.079C74.9178 21.0893 75.5684 21.0127 76.1998 20.8512C76.6516 20.7325 77.0951 20.5853 77.5277 20.4104L77.0442 18.1217C76.724 18.242 76.3975 18.345 76.0659 18.4302C75.6048 18.5499 75.1292 18.6067 74.6525 18.5992C73.8825 18.5992 73.332 18.3862 73.0121 17.9563C72.6923 17.5265 72.5323 16.7807 72.5323 15.7778V10.7007H77.0219V8.29074H72.5323V4.52148L69.6124 4.99907L69.6087 15.8035Z" fill="#072E45"/>
<path d="M61.3734 3.62955C60.5228 4.54309 60.0963 5.80318 60.0938 7.40983V20.7639H63.0174V10.7015H67.6037V8.29152H63.01V7.45758C63.0067 7.08692 63.0466 6.71711 63.129 6.35546C63.199 6.03908 63.3387 5.7418 63.5382 5.48479C63.7429 5.23313 64.0091 5.03715 64.3118 4.91536C64.6882 4.76927 65.0904 4.69931 65.4947 4.70963C65.8886 4.70685 66.2816 4.74752 66.6663 4.83086C66.9955 4.89872 67.3161 5.00221 67.6223 5.13946L68.1765 2.7552C67.7963 2.62528 67.4088 2.51733 67.016 2.43192C66.4295 2.30686 65.8305 2.24771 65.2306 2.25558C63.5096 2.25803 62.2239 2.71602 61.3734 3.62955Z" fill="#072E45"/>
<path d="M57.6164 11.8321C57.343 11.0725 56.9209 10.3734 56.3741 9.77483C55.8388 9.19683 55.1809 8.74272 54.4473 8.44494C53.6716 8.12864 52.839 7.97117 51.9998 7.98205C51.163 7.97042 50.3326 8.12794 49.5598 8.44494C48.8306 8.74476 48.1767 9.19869 47.6442 9.77483C47.0901 10.3707 46.6626 11.0703 46.3869 11.8321C46.0792 12.6944 45.9269 13.6034 45.9369 14.5176C45.9282 15.4342 46.0805 16.3453 46.3869 17.2105C46.6594 17.9761 47.0815 18.6813 47.6293 19.2861C48.1623 19.8594 48.8127 20.314 49.5374 20.6197C50.3164 20.9419 51.1555 21.0984 51.9998 21.0789C52.8487 21.0927 53.6912 20.9313 54.4733 20.605C55.2025 20.2997 55.858 19.8451 56.3964 19.2714C56.9447 18.6696 57.3625 17.9632 57.6238 17.1958C57.9265 16.3299 58.075 15.4188 58.0628 14.5029C58.0721 13.5938 57.9211 12.69 57.6164 11.8321V11.8321ZM54.2688 17.4933C54.003 17.8348 53.6614 18.1113 53.2702 18.3016C52.8791 18.4919 52.4489 18.5909 52.0128 18.5909C51.5768 18.5909 51.1466 18.4919 50.7554 18.3016C50.3643 18.1113 50.0226 17.8348 49.7569 17.4933C49.2175 16.7586 48.946 15.7704 48.946 14.5176C48.946 13.2649 49.2175 12.2913 49.7569 11.5786C50.0239 11.2391 50.366 10.9643 50.757 10.7753C51.148 10.5863 51.5775 10.4881 52.0128 10.4881C52.4481 10.4881 52.8777 10.5863 53.2687 10.7753C53.6596 10.9643 54.0017 11.2391 54.2688 11.5786C54.8081 12.295 55.0796 13.2796 55.0796 14.5176C55.0796 15.7557 54.7969 16.7696 54.2576 17.4933H54.2688Z" fill="#072E45"/>
<path d="M37.3262 18.3676C36.7969 18.2323 36.2765 18.0655 35.7676 17.868L35.2618 20.2743C35.7276 20.4475 36.2032 20.5935 36.6864 20.7115C37.5645 20.9174 38.466 21.01 39.3682 20.987C41.0247 20.987 42.2993 20.6809 43.192 20.0686C43.6323 19.7691 43.9872 19.3627 44.2224 18.8885C44.4576 18.4143 44.5651 17.8882 44.5347 17.361C44.5453 16.8757 44.4711 16.3923 44.3153 15.9319C44.1698 15.5314 43.9346 15.1684 43.6272 14.8702C43.2751 14.5331 42.8723 14.2518 42.4332 14.0363C41.8604 13.7524 41.2718 13.501 40.6701 13.2832C40.2535 13.1399 39.8964 13.0003 39.6063 12.868C39.3597 12.756 39.1254 12.6193 38.907 12.4603C38.7477 12.3463 38.6198 12.1947 38.535 12.0194C38.4578 11.8472 38.4197 11.6604 38.4234 11.472C38.4158 11.2819 38.4645 11.0937 38.5637 10.9306C38.6628 10.7674 38.8079 10.6364 38.9814 10.5536C39.4313 10.3376 39.9285 10.2353 40.4283 10.256C41.0137 10.2474 41.5981 10.3078 42.1691 10.436C42.5908 10.5296 43.0029 10.6612 43.4003 10.8291L43.9284 8.48896C43.4306 8.32202 42.9208 8.19185 42.4034 8.09954C41.7039 7.96364 40.9925 7.89597 40.2795 7.89749C38.814 7.89749 37.6547 8.22812 36.8017 8.88939C36.3851 9.20621 36.0514 9.61708 35.8288 10.0876C35.6062 10.558 35.501 11.0744 35.5222 11.5933C35.507 12.1044 35.6021 12.6128 35.8011 13.0848C35.9727 13.4779 36.2262 13.8309 36.545 14.1208C36.8901 14.4176 37.2758 14.6649 37.6907 14.8555C38.1662 15.0841 38.6542 15.2865 39.1525 15.4617C39.807 15.6801 40.4316 15.9774 41.0123 16.3471C41.1968 16.4566 41.3492 16.6118 41.4542 16.7974C41.5592 16.983 41.6133 17.1925 41.6111 17.4051C41.6265 17.5962 41.5842 17.7876 41.4895 17.955C41.3949 18.1224 41.2521 18.2583 41.0792 18.3456C40.5447 18.5625 39.9673 18.6567 39.3905 18.6211C38.6942 18.625 38.0003 18.5398 37.3262 18.3676V18.3676Z" fill="#072E45"/>
<path d="M29.5557 15.8213V19.2709C29.5557 22.0373 28.5514 23.6794 27.8372 24.4142C27.0635 25.2371 25.5757 26.4898 22.4326 26.4898H19.2635V20.7514H21.3726C21.6467 20.7669 21.9211 20.7287 22.1803 20.6392C22.4394 20.5497 22.6781 20.4106 22.8827 20.2298C23.0898 20.0297 23.2484 19.786 23.347 19.517C23.4455 19.2479 23.4813 18.9604 23.4518 18.6758C23.4518 18.1468 23.4518 16.7324 23.4704 15.8213H29.5557Z" fill="#7BC794"/>
<path d="M10.2959 0.505859V6.26628H8.18312C7.90782 6.25006 7.632 6.2878 7.37154 6.37734C7.11108 6.46687 6.87113 6.60642 6.66552 6.78795C6.45826 6.98776 6.29967 7.23146 6.20173 7.50067C6.10379 7.76987 6.06905 8.05753 6.10014 8.34194C6.10014 8.86361 6.10014 10.278 6.07411 11.1817H0V7.73944C0 4.9768 1.00429 3.33096 1.71845 2.59621C2.49213 1.76595 3.97997 0.505859 7.12675 0.505859H10.2959Z" fill="#7BC794"/>
<path d="M23.5003 0.506001C23.5003 0.506001 20.4428 0.373747 18.2929 1.35096C16.143 2.32817 14.8076 3.44499 13.7624 5.70801C12.6875 8.03348 11.6385 13.0775 10.2437 16.101C8.84884 19.1245 6.11865 18.6983 6.11865 18.6983V26.494C6.11865 26.494 9.17988 26.6263 11.3261 25.649C13.4723 24.6718 14.5733 23.4632 15.6222 21.2957C17.0692 18.3016 17.7461 13.9188 19.1373 10.9063C19.4884 10.069 20.1019 9.36477 20.8877 8.89672C21.6735 8.42867 22.5904 8.22143 23.5041 8.30534L23.5003 0.506001Z" fill="#00AFAA"/>
</svg>
